<?xml version="1.0" encoding="utf-8"?>
<!-- Generator: $$$/GeneralStr/196=Adobe Illustrator 27.6.0, SVG Export Plug-In . SVG Version: 6.00 Build 0)  -->
<svg version="1.1" id="Vectorportal.com" xmlns="http://www.w3.org/2000/svg" xmlns:xlink="http://www.w3.org/1999/xlink" x="0px"
	 y="0px" viewBox="0 0 500 500" style="enable-background:new 0 0 500 500;" xml:space="preserve">
<style type="text/css">
	.st0{fill:#FFFFFF;}
	.st1{fill:#B3B3B3;}
	.st2{fill:#BB2A19;}
	.st3{fill:#942114;}
	.st4{fill:#808080;}
	.st5{fill:none;}
	.st6{font-family:'MyriadPro-Regular';}
	.st7{font-size:40px;}
	.st8{fill:#F5F5D5;}
</style>
<rect class="st0" width="500" height="500"/>
<path class="st1" d="M480,500c-153.5-25.3-306.9-25.3-460,0V33.1h460V500z"/>
<rect class="st2" width="500" height="466.9"/>
<rect y="399.8" class="st3" width="229.3" height="51.2"/>
<rect width="500" height="109.2"/>
<g>
	<path class="st4" d="M126.1,185.7c0,24.2-20.2,43.9-45,43.9c-23.3,0-42.4-17.2-44.7-39.2c-0.2-1.5-0.3-3.1-0.3-4.6
		c0-1.6,0.1-3.1,0.3-4.6c2.4-22,21.5-39.2,44.7-39.2C105.9,141.8,126.1,161.5,126.1,185.7z"/>
	<path class="st0" d="M114.3,185.7c0,0.3,0,0.5,0,0.7c-0.1,0.3-0.1,0.5-0.2,0.7c0,0.2-0.1,0.3-0.1,0.5c0,0.1-0.1,0.1-0.1,0.2
		c-0.1,0.2-0.2,0.4-0.4,0.6c-0.2,0.2-0.3,0.4-0.5,0.6c0,0.1-0.1,0.1-0.1,0.2L82,219.2c-1,0.9-2.2,1.4-3.5,1.4
		c-1.3,0-2.5-0.5-3.5-1.4c-1.9-1.9-1.9-5,0-6.9l22.3-21.8H37.7c-0.5,0-0.9-0.1-1.4-0.2c-0.2-1.5-0.3-3.1-0.3-4.6s0.1-3.1,0.3-4.6
		c0.4-0.2,0.9-0.2,1.4-0.2h59.6L75,159.2c-1.9-1.9-1.9-5,0-6.9c2-1.9,5.1-1.9,7.1,0l30.8,30c0.1,0.1,0.1,0.1,0.1,0.2
		c0.2,0.2,0.3,0.4,0.5,0.6c0.1,0.2,0.3,0.4,0.4,0.6c0,0.1,0.1,0.1,0.1,0.2c0,0.1,0.1,0.3,0.1,0.5c0.1,0.2,0.1,0.5,0.2,0.7
		C114.3,185.2,114.3,185.5,114.3,185.7z"/>
</g>
<rect x="421.9" y="125.2" class="st3" width="78.1" height="51.2"/>
<rect y="340.4" class="st3" width="229.4" height="51.2"/>
<rect x="264.5" y="182.2" class="st3" width="235.5" height="51.2"/>
<rect x="0" y="281" class="st3" width="229.4" height="51.2"/>
<line class="st5" x1="94.7" y1="152.1" x2="93.1" y2="152.1"/>
<rect x="318" y="136.1" class="st5" width="151.7" height="44.4"/>
<text transform="matrix(1 0 0 1 317.9952 164.4804)" class="st0 st6 st7">Place </text>
<rect x="201.1" y="180.4" class="st5" width="44.4" height="3.1"/>
<rect x="174.5" y="195" class="st5" width="150.9" height="44.4"/>
<text transform="matrix(1 0 0 1 174.548 223.3994)" class="st8 st6 st7">Tarif</text>
<rect x="5.6" y="292.5" class="st5" width="150.9" height="44.4"/>
<text transform="matrix(1 0 0 1 5.613 320.8898)" class="st8 st6 st7">H:</text>
<rect x="8.7" y="351.4" class="st5" width="150.9" height="44.4"/>
<text transform="matrix(1 0 0 1 8.6523 379.8035)" class="st8 st6 st7">E:</text>
<rect x="8.7" y="410.3" class="st5" width="150.9" height="44.4"/>
<text transform="matrix(1 0 0 1 8.6523 438.7172)" class="st8 st6 st7">ID:</text>
<rect x="264.5" y="250" class="st3" width="235.5" height="204.7"/>
</svg>
